<?xml version="1.0" encoding="UTF-8"?>
<svg id="Capa_1" data-name="Capa 1" xmlns="http://www.w3.org/2000/svg" viewBox="0 0 6 6">
  <defs>
    <style>
      .cls-1 {
        fill: #795396;
        stroke-width: 0px;
      }
    </style>
  </defs>
  <path class="cls-1" d="M3,0l.36,1.54c.04.19.26.27.42.17l1.34-.84-.84,1.34c-.1.16-.01.38.17.42l1.54.36-1.54.36c-.19.04-.27.26-.17.42l.84,1.34-1.34-.84c-.16-.1-.38-.01-.42.17l-.36,1.54-.36-1.54c-.04-.19-.26-.27-.42-.17l-1.34.84.84-1.34c.1-.16.01-.38-.17-.42l-1.54-.36,1.54-.36c.19-.04.27-.26.17-.42L.88.88l1.34.84c.16.1.38.01.42-.17l.36-1.54Z"/>
</svg>